# xmcd CD database file
#
# Track frame offsets:
#	150
#	10067
#	23061
#	38024
#	49392
#	64151
#	76786
#	92774
#	108564
#	123193
#	138929
#	155231
#	172434
#	187127
#	198920
#	212813
#	228178
#	241448
#	256626
#	271867
#	285542
#	299511
#
# Disc length: 4172 seconds
#
# Revision: 1
# Processed by: cddbd v1.5.2PL0 Copyright (c) Steve Scherf et al.
# Submitted via: CDex 1.70beta2
#
DISCID=3d104a16
DTITLE=Various Artist - Jazz Roads CD376 - Bebop - Woody s Boys Vol.4 (1949-51)
DYEAR=1900
DGENRE=Jazz
TTITLE0=Serge Chaloff and Ralph Burns - Pat
TTITLE1=Serge Chaloff and Ralph Burns - King Edward The Flatted Fifth
TTITLE2=Bill Harris And His Orchestra - Imagination
TTITLE3=Bill Harris And His Orchestra - Opus 69
TTITLE4=Flip Phillips Quartet - Drowsy
TTITLE5=Flip Phillips Quartet - Vortex
TTITLE6=Flip Phillips Quartet - Milano
TTITLE7=Flip Phillips Quartet - But Beautiful
TTITLE8=Flip Phillips Quartet - Lover
TTITLE9=Flip Phillips Quartet - Don t Take Your Love From Me
TTITLE10=Flip Phillips Quartet - Flip s Boogie
TTITLE11=Flip Phillips Quartet - Feelin  The Blues
TTITLE12=Flip Phillips Quartet - Lover Come Back To Me
TTITLE13=Flip Phillips Quartet - Blue Room
TTITLE14=Flip Phillips And His Orchestra - Bebe
TTITLE15=Flip Phillips And His Orchestra - Dream A Little Dream Of Me
TTITLE16=Flip Phillips And His Orchestra - Bright Blues
TTITLE17=Flip Phillips Quintet - Cheek To Cheek
TTITLE18=Flip Phillips Quintet - Sorjoro
TTITLE19=Flip Phillips Quintet - I ve Got My Love To Keep Me Warm
TTITLE20=Flip Phillips Quintet - Funky Blues
TTITLE21=Flip Phillips Quintet - Indiana
EXTD=
EXTT0=
EXTT1=
EXTT2=
EXTT3=
EXTT4=
EXTT5=
EXTT6=
EXTT7=
EXTT8=
EXTT9=
EXTT10=
EXTT11=
EXTT12=
EXTT13=
EXTT14=
EXTT15=
EXTT16=
EXTT17=
EXTT18=
EXTT19=
EXTT20=
EXTT21=
PLAYORDER=
